<svg stroke-miterlimit="10" style="fill-rule:nonzero;clip-rule:evenodd;stroke-linecap:round;stroke-linejoin:round" viewBox="0 0 512 512" xml:space="preserve" xmlns="http://www.w3.org/2000/svg"><clipPath id="a"><path d="M0 0h512v512H0z"/></clipPath><g clip-path="url(#a)"><path d="M22.588 255.998a15.043 15.043 0 0 0-10.954 4.703 14.986 14.986 0 0 0-4.073 11.187c4.928 77.388 45.786 148.037 110.459 190.998a15.052 15.052 0 0 0 11.708 2.07 15.024 15.024 0 0 0 9.55-7.07l116.751-201.888H22.589z" fill="#ffa000"/><path d="m372.769 457.836-116.74-201.838-116.741 201.838a14.978 14.978 0 0 0-1.389 11.776 15.007 15.007 0 0 0 7.611 9.104c69.656 34.372 151.382 34.372 221.038 0a15.008 15.008 0 0 0 7.61-9.104 14.974 14.974 0 0 0-1.389-11.776z" fill="#ffa000"/><path d="M139.288 54.18a15.023 15.023 0 0 0-9.55-7.07 15.05 15.05 0 0 0-11.708 2.07C53.357 92.14 12.499 162.79 7.571 240.178a14.985 14.985 0 0 0 4.074 11.187 15.043 15.043 0 0 0 10.953 4.703H256.02L139.288 54.18zM366.548 33.27c-69.659-34.363-151.38-34.363-221.038 0a15.006 15.006 0 0 0-7.616 9.108 14.976 14.976 0 0 0 1.394 11.782l116.741 201.838L372.769 54.16a14.976 14.976 0 0 0 1.394-11.782 15.005 15.005 0 0 0-7.615-9.108z" fill="#ffa000"/><path d="M504.476 240.108C499.548 162.72 458.69 92.071 394.017 49.11a15.049 15.049 0 0 0-11.708-2.07 15.023 15.023 0 0 0-9.55 7.07l-116.73 201.888h101.182v50.059a18.501 18.501 0 0 0 5.434 13.106 18.571 18.571 0 0 0 13.129 5.424h.481a19.173 19.173 0 0 0 13.583-5.568 19.108 19.108 0 0 0 5.642-13.532v-6.88c0-6.572 5.337-11.899 11.921-11.899s11.922 5.327 11.922 11.899v53.46c0 8.047 6.535 14.57 14.596 14.57s14.596-6.523 14.596-14.57v-96.069h40.954c4.141.002 8.1-1.703 10.941-4.711a14.984 14.984 0 0 0 4.066-11.179z" fill="#ffa000"/><path d="M48.365 255.998c0 12.4-2.896 24.89-.822 36.7 2.134 12.139 9.167 22.889 13.294 34.209 4.208 11.53 5.78 24.27 11.852 34.75 6.07 10.48 16.43 18.28 24.253 27.58 7.824 9.299 13.685 20.779 23.042 28.619 9.357 7.84 21.619 11.57 32.218 17.69l103.827-179.548H48.365z" fill="#ffe082"/><path d="m204.406 255.998-90.263 156.058c11.461 13.08 24.104 15.43 38.069 23.49l103.817-179.548h-51.623z" fill="#ffb300"/><path d="M152.182 435.546c10.458 6 19.875 14.85 31.436 19.05 11.341 4.12 24.174 3.44 36.336 5.57 11.831 2.07 23.652 7.12 36.065 7.12 12.412 0 24.243-5.05 36.065-7.12 12.161-2.13 25.045-1.45 36.335-5.57 11.551-4.2 20.938-13 31.427-19.05L256.029 255.998 152.182 435.546z" fill="#ffe082"/><path d="m256.029 255.998-14.256 24.64 78.03 134.908c-10.488 6.06-19.875 14.85-31.426 19.05-11.341 4.12-24.174 3.44-36.336 5.57-11.831 2.07-23.652 7.12-36.065 7.12-12.412 0-24.243-5.05-36.064-7.12-8.145-1.42-16.59-1.6-24.685-2.79 9.317 5.89 18.033 13.43 28.421 17.22 11.341 4.12 24.174 3.45 36.336 5.57 11.831 2.07 23.652 7.12 36.065 7.12 12.412 0 24.243-5.05 36.065-7.12 12.161-2.12 25.045-1.45 36.335-5.57 11.551-4.2 20.938-13 31.437-19.05L256.029 255.998z" fill="#ffb300"/><path d="M152.182 76.45c-10.599 6.12-22.892 9.88-32.218 17.69-9.327 7.809-15.168 19.289-23.042 28.619-7.874 9.33-18.123 17-24.254 27.58-6.13 10.58-7.643 23.22-11.85 34.75-4.128 11.319-11.16 22.069-13.295 34.209-2.074 11.81.822 24.3.822 36.7h207.684L152.182 76.45z" fill="#ffe082"/><path d="M152.182 76.45c-7.083 4.09-14.927 7.13-22.13 11l68.553 118.548a19.97 19.97 0 0 1 0 20 20.042 20.042 0 0 1-17.351 10H47.123c.45 6.61 1.282 13.32 1.282 20h207.624L152.182 76.45z" fill="#ffb300"/><path d="M328.439 57.4c-11.34-4.12-24.174-3.44-36.335-5.57-11.832-2.07-23.653-7.12-36.065-7.12-12.413 0-24.244 5.05-36.065 7.12-12.162 2.13-24.995 1.45-36.336 5.57-10.749 3.91-18.243 10.95-31.436 19l103.827 179.598L359.876 76.45C349.417 70.42 340 61.6 328.439 57.4z" fill="#ffe082"/><path d="M328.439 57.4a59.58 59.58 0 0 0-11.651-2.78c1.002.62 2.004 1.25 3.005 1.84l-89.601 154.898 25.837 44.64L359.876 76.45C349.417 70.42 340 61.6 328.439 57.4z" fill="#ffb300"/><path d="M448.515 255.998h15.177c0-12.4 2.896-24.89.822-36.7-2.134-12.14-9.167-22.89-13.294-34.209-4.208-11.53-5.78-24.27-11.851-34.75-6.071-10.48-16.43-18.28-24.264-27.58-7.834-9.3-13.675-20.78-23.041-28.62-9.367-7.84-21.609-11.57-32.208-17.69L256.029 255.999h101.182v50.059a18.501 18.501 0 0 0 5.434 13.106 18.571 18.571 0 0 0 13.129 5.424h.481a19.173 19.173 0 0 0 13.583-5.568 19.108 19.108 0 0 0 5.642-13.532v-6.88c0-6.572 5.337-11.899 11.921-11.899s11.922 5.327 11.922 11.899v53.46c0 8.047 6.535 14.57 14.596 14.57s14.596-6.523 14.596-14.57v-96.069z" fill="#ffe082"/><path d="M464.514 219.298c-2.134-12.14-9.167-22.89-13.294-34.209-4.208-11.53-5.78-24.27-11.851-34.75-6.071-10.48-16.43-18.28-24.264-27.58-7.834-9.3-13.675-20.78-23.041-28.62-9.367-7.84-21.609-11.57-32.208-17.69l-2.004 3.49c6.221 7.1 11.1 15.6 17.171 22.82 7.834 9.3 18.132 17 24.264 27.58 6.131 10.58 7.643 23.22 11.851 34.75 4.127 11.32 11.16 22.07 13.294 34.209l.06.36c3.186 19.07-11.861 36.34-31.226 36.34H267.599l-11.57 20h152.414v30.77c6.153.534 10.877 5.674 10.88 11.839v53.46c0 8.047 6.535 14.57 14.596 14.57s14.596-6.523 14.596-14.57v-96.069h15.177c0-12.4 2.896-24.89.822-36.7z" fill="#ffb300"/><path d="M263.512 400.126c0 16.42-13.334 29.73-29.784 29.73-16.449 0-29.783-13.31-29.783-29.73 0-16.419 13.334-29.729 29.783-29.729 16.45 0 29.784 13.31 29.784 29.729zM170.605 352.997c.005 16.42-13.327 29.736-29.777 29.74-16.45.003-29.789-13.306-29.79-29.727-.002-16.42 13.333-29.733 29.783-29.733 16.445 0 29.778 13.305 29.784 29.72zM195.109 199.858c0 16.421-13.337 29.732-29.787 29.73-16.45-.002-29.784-13.316-29.78-29.736.003-16.421 13.343-29.729 29.793-29.723 16.443.011 29.768 13.316 29.774 29.729zM257.642 99.12c0 16.419-13.335 29.729-29.784 29.729-16.449 0-29.784-13.31-29.784-29.73 0-16.419 13.335-29.73 29.784-29.73 16.449 0 29.784 13.311 29.784 29.73z" fill="#ef5350"/><path d="M388.467 135.909c.006 8.215-6.664 14.878-14.893 14.88-8.23.002-14.902-6.658-14.901-14.873.002-8.215 6.677-14.872 14.907-14.867 8.222 0 14.887 6.653 14.887 14.86zM340.541 213.108c.005 8.211-6.658 14.873-14.884 14.88-8.226.008-14.901-6.642-14.91-14.853-.009-8.211 6.651-14.875 14.877-14.887a14.904 14.904 0 0 1 10.546 4.342 14.849 14.849 0 0 1 4.371 10.518zM323.069 91.32c0 8.213-6.671 14.871-14.9 14.869-8.228-.001-14.897-6.662-14.893-14.876.003-8.214 6.678-14.869 14.907-14.863 8.225 0 14.892 6.659 14.886 14.87zM270.915 173.559c.006 8.215-6.663 14.878-14.893 14.88-8.23.001-14.902-6.659-14.9-14.874.002-8.215 6.677-14.872 14.907-14.866 8.221 0 14.886 6.653 14.886 14.86zM104.045 219.108a14.87 14.87 0 0 1-9.2 13.75 14.917 14.917 0 0 1-16.245-3.239 14.852 14.852 0 0 1-3.201-16.224 14.898 14.898 0 0 1 13.8-9.147c8.205.022 14.846 6.669 14.846 14.86zM189.579 289.628c0 8.212-6.67 14.869-14.897 14.869s-14.897-6.657-14.897-14.869c0-8.213 6.67-14.87 14.897-14.87a14.901 14.901 0 0 1 10.537 4.352 14.846 14.846 0 0 1 4.36 10.518zM155.107 124.679c-2.302-7.887-10.574-12.417-18.475-10.116-7.9 2.301-12.435 10.56-10.126 18.445 2.308 7.885 10.584 12.408 18.483 10.101 7.889-2.305 12.417-10.552 10.118-18.43zM109.415 300.587c.005 8.214-6.662 14.877-14.89 14.88-8.23.004-14.902-6.653-14.904-14.866-.002-8.214 6.668-14.873 14.897-14.873 8.223 0 14.891 6.651 14.897 14.859zM319.152 414.996c.006 8.214-6.661 14.876-14.89 14.88-8.228.004-14.902-6.653-14.903-14.866-.002-8.214 6.668-14.874 14.896-14.874 8.224 0 14.892 6.652 14.897 14.86zM270.915 330.317c.006 8.215-6.663 14.878-14.893 14.88-8.23.002-14.902-6.658-14.9-14.873.002-8.215 6.677-14.872 14.907-14.867 8.221 0 14.886 6.653 14.886 14.86z" fill="#ffa000"/><path d="M428.669 201.858c0 16.42-13.334 29.73-29.783 29.73s-29.784-13.31-29.784-29.73c0-16.419 13.335-29.729 29.784-29.729 16.447.005 29.778 13.312 29.783 29.729z" fill="#ef5350"/><path d="M239.88 371.047c11.861 21.95-7.424 48.449-32.469 43.159 6.529 12.117 20.534 18.179 33.858 14.656 13.324-3.524 22.485-15.713 22.147-29.467-.338-13.754-10.086-25.48-23.567-28.348h.031zM147.012 323.907c11.872 22-7.373 48.45-32.428 43.16 6.529 12.119 20.536 18.182 33.861 14.657 13.325-3.525 22.486-15.717 22.145-29.473-.341-13.756-10.094-25.481-23.578-28.344zM171.526 170.769c11.862 22-7.383 48.459-32.438 43.159 6.529 12.117 20.534 18.179 33.858 14.656 13.324-3.524 22.484-15.713 22.147-29.467-.338-13.754-10.086-25.48-23.567-28.348zM234.059 70c11.861 22-7.383 48.449-32.438 43.159 6.529 12.117 20.534 18.179 33.858 14.656 13.323-3.524 22.484-15.713 22.146-29.467-.337-13.754-10.085-25.48-23.566-28.348zM405.087 172.779c11.861 21.999-7.383 48.449-32.438 43.159 6.529 12.117 20.534 18.179 33.857 14.656 13.324-3.524 22.485-15.713 22.147-29.467-.337-13.754-10.086-25.48-23.566-28.348z" fill="#d32f2f"/><path d="M270.976 400.126c0-20.561-16.699-37.229-37.298-37.229-20.598 0-37.297 16.668-37.297 37.229 0 20.562 16.699 37.23 37.297 37.23 20.59-.022 37.275-16.677 37.298-37.23zm-59.568 0c0-12.277 9.971-22.229 22.27-22.229 12.3 0 22.27 9.952 22.27 22.229 0 12.278-9.97 22.23-22.27 22.23-12.291-.016-22.249-9.961-22.26-22.23h-.01zM140.821 315.757c-20.597 0-37.295 16.667-37.297 37.227-.002 20.56 16.693 37.229 37.291 37.233 20.597.003 37.298-16.66 37.303-37.22-.016-20.556-16.703-37.218-37.297-37.24zm0 59.45c-12.302 0-22.274-9.957-22.27-22.237.004-12.28 9.982-22.23 22.284-22.223 12.302.008 22.267 9.97 22.256 22.25-.022 12.265-9.983 22.199-22.27 22.21zM165.335 162.629c-20.598 0-37.297 16.668-37.297 37.229 0 20.562 16.699 37.23 37.297 37.23 20.599 0 37.297-16.668 37.297-37.23-.022-20.552-16.707-37.207-37.297-37.229zm0 59.459c-12.299 0-22.27-9.952-22.27-22.23 0-12.277 9.971-22.229 22.27-22.229 12.3 0 22.27 9.952 22.27 22.229-.016 12.271-9.977 22.214-22.27 22.23zM265.155 99.12c0-20.562-16.698-37.23-37.297-37.23-20.599 0-37.297 16.668-37.297 37.23 0 20.561 16.698 37.229 37.297 37.229 20.589-.022 37.275-16.677 37.297-37.23zm-59.567 0c0-12.278 9.97-22.23 22.27-22.23 12.299 0 22.27 9.952 22.27 22.23 0 12.277-9.971 22.229-22.27 22.229-12.295-.011-22.259-9.957-22.27-22.23zM395.981 135.909c0-12.356-10.036-22.372-22.414-22.37-12.378.002-22.411 10.021-22.407 22.377.004 12.356 10.042 22.368 22.42 22.363 12.371-.011 22.395-10.022 22.401-22.37zm-29.784 0c0-4.07 3.306-7.37 7.383-7.37 4.078 0 7.384 3.3 7.384 7.37s-3.306 7.37-7.384 7.37c-4.077 0-7.383-3.3-7.383-7.37zM325.624 190.749c-12.38-.006-22.419 10.009-22.42 22.366-.002 12.357 10.034 22.375 22.413 22.373 12.38-.002 22.413-10.023 22.407-22.38-.016-12.342-10.036-22.343-22.4-22.359zm0 29.729c-4.079.006-7.39-3.291-7.393-7.363-.004-4.072 3.301-7.375 7.38-7.377 4.079-.001 7.386 3.299 7.386 7.37-.005 4.064-3.302 7.359-7.373 7.37zM308.183 113.679c12.379.006 22.418-10.009 22.42-22.366.002-12.357-10.034-22.375-22.414-22.373-12.379.002-22.412 10.022-22.407 22.38.011 12.344 10.034 22.348 22.401 22.359zm0-29.73c4.079-.005 7.389 3.292 7.393 7.364.004 4.071-3.301 7.375-7.38 7.376-4.079.002-7.387-3.298-7.387-7.37.028-4.046 3.319-7.314 7.374-7.32v-.05zM233.618 173.559c-.005 12.355 10.026 22.376 22.404 22.379 12.378.004 22.415-10.01 22.417-22.366.002-12.356-10.032-22.373-22.41-22.373-12.367.016-22.389 10.016-22.411 22.36zm29.784 0c.005 4.073-3.3 7.378-7.38 7.38-4.08.001-7.389-3.301-7.387-7.374.002-4.073 3.313-7.372 7.394-7.366 4.069.005 7.367 3.297 7.373 7.36zM89.198 196.748c-12.38-.005-22.418 10.01-22.42 22.367-.002 12.357 10.034 22.375 22.414 22.373 12.379-.002 22.412-10.023 22.407-22.38-.011-12.344-10.034-22.349-22.4-22.36zm0 29.73c-4.079.006-7.39-3.291-7.393-7.363-.004-4.072 3.3-7.375 7.38-7.377 4.079-.002 7.386 3.299 7.386 7.37 0 4.067-3.299 7.365-7.373 7.37zM174.682 311.997c12.382.022 22.436-9.983 22.451-22.343.014-12.359-10.015-22.389-22.397-22.396-12.382-.008-22.424 10.01-22.424 22.37.011 12.334 10.014 22.336 22.37 22.369zm0-29.729c4.078 0 7.383 3.299 7.383 7.37 0 4.07-3.305 7.369-7.383 7.369-4.077 0-7.383-3.299-7.383-7.369 0-4.072 3.304-7.375 7.383-7.38v.01zM140.791 151.219c11.32.032 20.893-8.352 22.333-19.559 1.44-11.208-5.704-21.732-16.666-24.552-10.961-2.819-22.311 2.948-26.477 13.454s.155 22.464 10.081 27.897a22.343 22.343 0 0 0 10.729 2.76zm-2.003-29.44a7.379 7.379 0 0 1 9.449 6.542 7.374 7.374 0 0 1-6.31 7.823c-3.834.551-7.443-1.947-8.268-5.724a7.37 7.37 0 0 1 5.129-8.641zM116.928 300.587c-.022-12.349-10.065-22.344-22.437-22.329-12.371.014-22.39 10.033-22.383 22.383.007 12.349 10.038 22.356 22.41 22.356 12.388-.011 22.421-10.044 22.41-22.41zm-22.41 7.41c-4.078 0-7.383-3.299-7.383-7.37 0-4.07 3.305-7.369 7.383-7.369 4.078 0 7.383 3.299 7.383 7.369 0 4.071-3.305 7.37-7.383 7.37zM304.255 437.356c12.38.006 22.419-10.009 22.421-22.366.002-12.357-10.034-22.375-22.414-22.373-12.379.001-22.412 10.022-22.407 22.379.022 12.34 10.038 22.338 22.4 22.36zm0-29.73c4.081-.005 7.392 3.294 7.394 7.367.002 4.073-3.307 7.375-7.387 7.373-4.08-.002-7.385-3.307-7.38-7.38.006-4.062 3.304-7.354 7.373-7.36zM256.029 352.687c12.377 0 22.41-10.015 22.41-22.37 0-12.354-10.033-22.37-22.41-22.37s-22.411 10.016-22.411 22.37c.011 12.35 10.038 22.359 22.411 22.37zm0-29.73c4.079 0 7.385 3.302 7.383 7.373-.002 4.072-3.311 7.371-7.39 7.367-4.079-.004-7.382-3.308-7.377-7.38.028-4.051 3.325-7.32 7.384-7.32v-.04zM398.886 164.629c-20.599 0-37.297 16.668-37.297 37.229 0 20.562 16.698 37.23 37.297 37.23 20.598 0 37.297-16.668 37.297-37.23-.022-20.552-16.708-37.207-37.297-37.229zm0 59.459c-12.3 0-22.27-9.952-22.27-22.23 0-12.277 9.97-22.229 22.27-22.229 12.299 0 22.27 9.952 22.27 22.229-.017 12.271-9.978 22.214-22.27 22.23z"/><path d="M511.959 239.638c-5.117-79.698-47.191-152.45-113.774-196.728a22.445 22.445 0 0 0-17.031-3.26 22.404 22.404 0 0 0-11.29-13.09c-71.758-35.413-155.953-35.413-227.71 0a22.402 22.402 0 0 0-11.291 13.09 22.462 22.462 0 0 0-17.03 3.26C47.242 87.184 5.159 159.937.038 239.638a22.516 22.516 0 0 0 5.74 16.36 22.515 22.515 0 0 0-5.74 16.36c5.12 79.712 47.22 152.47 113.835 196.728a22.385 22.385 0 0 0 17.03 3.26 22.449 22.449 0 0 0 11.291 13.1c71.759 35.405 155.95 35.405 227.71 0a22.496 22.496 0 0 0 11.478-13.65 22.444 22.444 0 0 0-2.081-17.7L269.102 263.508h80.565v42.559a25.979 25.979 0 0 0 7.809 18.568 26.071 26.071 0 0 0 18.749 7.432c14.734.006 26.694-11.892 26.738-26.6v-6.88a4.403 4.403 0 0 1 4.408-4.399 4.403 4.403 0 0 1 4.408 4.399v53.46c0 12.189 9.899 22.07 22.11 22.07s22.11-9.881 22.11-22.07v-88.549h33.44a22.572 22.572 0 0 0 16.424-7.074 22.487 22.487 0 0 0 6.096-16.786zM124.802 412.116c-8.375-7-14.025-18.109-22.099-27.699-8.075-9.59-18.033-17-23.513-26.52s-7.012-21.71-11.29-33.55c-4.258-11.67-11.02-22.05-12.953-32.999-1.483-8.44 0-17.85.66-27.9h187.408l-93.709 162.088c-9.016-4.44-17.852-7.85-24.504-13.42zM54.947 220.598c1.903-10.9 8.695-21.28 12.953-32.999 4.318-11.85 5.85-24.17 11.29-33.55 5.44-9.38 15.448-16.94 23.513-26.52 8.064-9.58 13.724-20.67 22.099-27.7 6.652-5.57 15.478-9 24.494-13.42l39.532 68.36c2.074 3.591 6.672 4.824 10.269 2.752a7.495 7.495 0 0 0 2.754-10.252l-39.521-68.27c8.305-5.57 15.638-11.5 23.883-14.5 10.148-3.69 22.581-3 35.063-5.23 12.202-2.14 23.603-7 34.773-7 11.17 0 22.56 4.87 34.772 7 12.493 2.18 24.925 1.54 35.063 5.23 8.235 3 15.568 8.92 23.883 14.5l-93.738 161.999-36.596-63.369c-2.076-3.589-6.672-4.819-10.267-2.748a7.497 7.497 0 0 0-2.757 10.248l36.656 63.369H55.608c-.661-10.05-2.144-19.5-.661-27.9zM148.856 40c67.561-33.333 146.825-33.333 214.386 0a7.462 7.462 0 0 1 3.786 4.55 7.447 7.447 0 0 1-.721 5.87l-9.016 15.51c-8.275-5.62-16.299-11.94-26.277-15.56-12.523-4.55-25.817-3.85-37.618-5.92-11.441-2-23.693-7.23-37.367-7.23-13.675 0-25.927 5.24-37.368 7.23-11.801 2.07-25.095 1.36-37.617 5.92-10.018 3.62-17.983 9.93-26.278 15.56-.07-.11-8.966-15.5-8.966-15.5A7.461 7.461 0 0 1 148.856 40zM15.065 240.578c4.698-74.419 44.75-143.649 107.123-185.198a7.494 7.494 0 0 1 10.589 2.55l9.016 15.51c-9.016 4.38-18.543 8.18-26.628 15-10.299 8.64-16.33 20.489-23.943 29.539-7.614 9.05-18.253 17-25.045 28.65-6.792 11.65-8.335 24.74-12.413 35.93-4.007 10.999-11.28 22.109-13.634 35.489-1.803 10.29-.32 20.43.4 30.49H22.589a7.49 7.49 0 0 1-5.5-2.344 7.46 7.46 0 0 1-2.023-5.616zm107.193 216.028C59.835 415.066 19.783 345.837 15.065 271.418a7.461 7.461 0 0 1 2.033-5.583 7.493 7.493 0 0 1 5.47-2.337h17.953c-.722 10.07-2.204 20.2-.401 30.49 2.354 13.379 9.637 24.519 13.635 35.489 4.077 11.18 5.71 24.38 12.412 35.93 6.702 11.55 17.421 19.64 25.045 28.66 7.624 9.019 13.644 20.889 23.943 29.529 8.085 6.78 17.592 10.58 26.628 15l-9.016 15.5a7.467 7.467 0 0 1-10.509 2.51zm240.944 15.39c-67.561 33.333-146.825 33.333-214.386 0a7.45 7.45 0 0 1-3.066-10.42l9.016-15.51c8.275 5.62 16.29 11.94 26.278 15.56 3.862 1.29 8.051-.726 9.444-4.547 1.394-3.82-.516-8.052-4.305-9.543-8.235-3-15.578-8.92-23.883-14.5l93.729-161.998 93.728 162.048c-8.315 5.58-15.648 11.5-23.883 14.5-10.148 3.69-22.58 3.05-35.063 5.23-12.212 2.13-23.602 7-34.772 7-11.912 0-23.613-5.44-37.618-7.46-4.109-.595-7.923 2.248-8.518 6.35-.595 4.101 2.255 7.907 6.364 8.5 12.953 1.86 25.296 7.61 39.772 7.61 13.674 0 25.916-5.23 37.367-7.23 11.791-2.06 25.045-1.36 37.618-5.92 10.018-3.62 18.032-9.93 26.277-15.56l9.016 15.51a7.456 7.456 0 0 1 .676 5.858 7.477 7.477 0 0 1-3.791 4.522zm85.313-223.498c-4.149 0-7.513 3.358-7.513 7.5v96.069c0 3.905-3.171 7.07-7.083 7.07-3.912 0-7.083-3.165-7.083-7.07v-53.46c.004-10.716-8.699-19.406-19.435-19.406-10.736 0-19.439 8.69-19.435 19.406v6.88c0 6-4.668 11.6-12.192 11.6-6.086 0-11.02-4.925-11.02-11v-42.589h56.823c4.149 0 7.513-3.358 7.513-7.5 0-4.142-3.364-7.5-7.513-7.5H269.042L362.761 86.5c9.016 4.43 17.842 7.84 24.494 13.42 8.375 6.999 14.025 18.099 22.1 27.699 8.074 9.6 18.032 17 23.512 26.52s7.013 21.71 11.29 33.55c4.258 11.669 11.02 21.999 12.954 32.999 1.482 8.44 0 17.85-.662 27.9l-7.934-.09zm40.954 0h-17.952c.711-10.07 2.204-20.2.4-30.49-2.354-13.38-9.637-24.519-13.644-35.489-4.068-11.18-5.711-24.38-12.403-35.93s-17.421-19.64-25.045-28.66c-7.623-9.02-13.604-20.93-23.903-29.53-8.084-6.77-17.581-10.57-26.628-15l8.966-15.51a7.496 7.496 0 0 1 10.59-2.55c62.372 41.59 102.424 110.82 107.082 185.239a7.458 7.458 0 0 1-2.019 5.568 7.49 7.49 0 0 1-5.444 2.352z"/></g></svg>